HIERARCHY
ROOT Hips
{
  OFFSET -3.324 40.465 -223.079
  CHANNELS 6 Xposition Yposition Zposition Zrotation Xrotation Yrotation
  JOINT LeftUpLeg
  {
    OFFSET 7.438 -5.592 4.285
    CHANNELS 6 Xposition Yposition Zposition Zrotation Xrotation Yrotation
    JOINT LeftLeg
    {
      OFFSET 0.000 -44.510 0.000
      CHANNELS 6 Xposition Yposition Zposition Zrotation Xrotation Yrotation
      JOINT LeftFoot
      {
        OFFSET -0.000 -38.510 -0.000
        CHANNELS 6 Xposition Yposition Zposition Zrotation Xrotation Yrotation
        End Site
        {
          OFFSET 0.000 -9.445 5.453
        }
      }
    }
  }
  JOINT RightUpLeg
  {
    OFFSET -7.439 -5.858 4.296
    CHANNELS 6 Xposition Yposition Zposition Zrotation Xrotation Yrotation
    JOINT RightLeg
    {
      OFFSET -0.000 -44.956 0.000
      CHANNELS 6 Xposition Yposition Zposition Zrotation Xrotation Yrotation
      JOINT RightFoot
      {
        OFFSET -0.000 -38.297 -0.000
        CHANNELS 6 Xposition Yposition Zposition Zrotation Xrotation Yrotation
        End Site
        {
          OFFSET 0.000 -9.021 5.208
        }
      }
    }
  }
  JOINT Spine
  {
    OFFSET 0.000 4.659 -4.659
    CHANNELS 6 Xposition Yposition Zposition Zrotation Xrotation Yrotation
    JOINT LeftShoulder
    {
      OFFSET -0.000 36.302 0.000
      CHANNELS 6 Xposition Yposition Zposition Zrotation Xrotation Yrotation
      JOINT LeftArm
      {
        OFFSET 19.731 0.000 -0.000
        CHANNELS 6 Xposition Yposition Zposition Zrotation Xrotation Yrotation
        JOINT LeftForeArm
        {
          OFFSET 24.927 0.000 0.000
          CHANNELS 6 Xposition Yposition Zposition Zrotation Xrotation Yrotation
          JOINT LeftHand
          {
            OFFSET 24.896 0.000 -0.000
            CHANNELS 6 Xposition Yposition Zposition Zrotation Xrotation Yrotation
            JOINT LeftHandThumb1
            {
            OFFSET 4.970 -0.620 3.390
            CHANNELS 6 Xposition Yposition Zposition Zrotation Xrotation Yrotation
              JOINT LeftHandThumb2
              {
              OFFSET 2.150 -0.000 0.000
              CHANNELS 6 Xposition Yposition Zposition Zrotation Xrotation Yrotation
                JOINT LeftHandThumb3
                {
                OFFSET 2.200 -0.000 0.000
                CHANNELS 6 Xposition Yposition Zposition Zrotation Xrotation Yrotation
                  JOINT LeftHandThumb4
                  {
                  OFFSET 1.700 -0.000 0.000
                  CHANNELS 6 Xposition Yposition Zposition Zrotation Xrotation Yrotation
                  }
                }
              }
            }
            JOINT LeftHandIndex1
            {
            OFFSET 8.730 0.680 2.070
            CHANNELS 6 Xposition Yposition Zposition Zrotation Xrotation Yrotation
              JOINT LeftHandIndex2
              {
              OFFSET 2.670 -0.000 0.000
              CHANNELS 6 Xposition Yposition Zposition Zrotation Xrotation Yrotation
                JOINT LeftHandIndex3
                {
                OFFSET 2.130 -0.000 0.000
                CHANNELS 6 Xposition Yposition Zposition Zrotation Xrotation Yrotation
                  JOINT LeftHandIndex4
                  {
                  OFFSET 1.800 -0.000 0.000
                  CHANNELS 6 Xposition Yposition Zposition Zrotation Xrotation Yrotation
                  }
                }
              }
            }
            JOINT LeftHandMiddle1
            {
            OFFSET 9.220 0.670 0.550
            CHANNELS 6 Xposition Yposition Zposition Zrotation Xrotation Yrotation
              JOINT LeftHandMiddle2
              {
              OFFSET 2.660 -0.000 0.000
              CHANNELS 6 Xposition Yposition Zposition Zrotation Xrotation Yrotation
                JOINT LeftHandMiddle3
                {
                OFFSET 2.280 -0.000 0.000
                CHANNELS 6 Xposition Yposition Zposition Zrotation Xrotation Yrotation
                  JOINT LeftHandMiddle4
                  {
                  OFFSET 1.500 -0.000 0.000
                  CHANNELS 6 Xposition Yposition Zposition Zrotation Xrotation Yrotation
                  }
                }
              }
            }
            JOINT LeftHandRing1
            {
            OFFSET 9.250 0.670 -1.130
            CHANNELS 6 Xposition Yposition Zposition Zrotation Xrotation Yrotation
              JOINT LeftHandRing2
              {
              OFFSET 2.470 -0.000 0.000
              CHANNELS 6 Xposition Yposition Zposition Zrotation Xrotation Yrotation
                JOINT LeftHandRing3
                {
                OFFSET 2.210 -0.000 0.000
                CHANNELS 6 Xposition Yposition Zposition Zrotation Xrotation Yrotation
                  JOINT LeftHandRing4
                  {
                  OFFSET 1.800 -0.000 0.000
                  CHANNELS 6 Xposition Yposition Zposition Zrotation Xrotation Yrotation
                  }
                }
              }
            }
            JOINT LeftHandPinky1
            {
            OFFSET 9.350 0.660 -2.720
            CHANNELS 6 Xposition Yposition Zposition Zrotation Xrotation Yrotation
              JOINT LeftHandPinky2
              {
              OFFSET 1.630 -0.000 0.000
              CHANNELS 6 Xposition Yposition Zposition Zrotation Xrotation Yrotation
                JOINT LeftHandPinky3
                {
                OFFSET 1.710 -0.000 0.000
                CHANNELS 6 Xposition Yposition Zposition Zrotation Xrotation Yrotation
                  JOINT LeftHandPinky4
                  {
                  OFFSET 1.800 -0.000 0.000
                  CHANNELS 6 Xposition Yposition Zposition Zrotation Xrotation Yrotation
                  }
                }
              }
            }
          }
        }
      }
    }
    JOINT RightShoulder
    {
      OFFSET -0.000 36.302 0.000
      CHANNELS 6 Xposition Yposition Zposition Zrotation Xrotation Yrotation
      JOINT RightArm
      {
        OFFSET -20.355 0.000 -0.000
        CHANNELS 6 Xposition Yposition Zposition Zrotation Xrotation Yrotation
        JOINT RightForeArm
        {
          OFFSET -25.287 0.000 0.000
          CHANNELS 6 Xposition Yposition Zposition Zrotation Xrotation Yrotation
          JOINT RightHand
          {
            OFFSET -25.805 0.000 -0.000
            CHANNELS 6 Xposition Yposition Zposition Zrotation Xrotation Yrotation
            JOINT RightHandThumb1
            {
            OFFSET -4.970 -0.620 3.390
            CHANNELS 6 Xposition Yposition Zposition Zrotation Xrotation Yrotation
              JOINT RightHandThumb2
              {
              OFFSET -2.150 0.000 0.000
              CHANNELS 6 Xposition Yposition Zposition Zrotation Xrotation Yrotation
                JOINT RightHandThumb3
                {
                OFFSET -2.200 0.000 0.000
                CHANNELS 6 Xposition Yposition Zposition Zrotation Xrotation Yrotation
                  JOINT RightHandThumb4
                  {
                  OFFSET -1.700 0.000 0.000
                  CHANNELS 6 Xposition Yposition Zposition Zrotation Xrotation Yrotation
                  }
                }
              }
            }
            JOINT RightHandIndex1
            {
            OFFSET -8.730 0.680 2.070
            CHANNELS 6 Xposition Yposition Zposition Zrotation Xrotation Yrotation
              JOINT RightHandIndex2
              {
              OFFSET -2.670 0.000 0.000
              CHANNELS 6 Xposition Yposition Zposition Zrotation Xrotation Yrotation
                JOINT RightHandIndex3
                {
                OFFSET -2.130 0.000 0.000
                CHANNELS 6 Xposition Yposition Zposition Zrotation Xrotation Yrotation
                  JOINT RightHandIndex4
                  {
                  OFFSET -1.800 0.000 0.000
                  CHANNELS 6 Xposition Yposition Zposition Zrotation Xrotation Yrotation
                  }
                }
              }
            }
            JOINT RightHandMiddle1
            {
            OFFSET -9.220 0.670 0.550
            CHANNELS 6 Xposition Yposition Zposition Zrotation Xrotation Yrotation
              JOINT RightHandMiddle2
              {
              OFFSET -2.660 0.000 0.000
              CHANNELS 6 Xposition Yposition Zposition Zrotation Xrotation Yrotation
                JOINT RightHandMiddle3
                {
                OFFSET -2.280 0.000 0.000
                CHANNELS 6 Xposition Yposition Zposition Zrotation Xrotation Yrotation
                  JOINT RightHandMiddle4
                  {
                  OFFSET -1.500 0.000 0.000
                  CHANNELS 6 Xposition Yposition Zposition Zrotation Xrotation Yrotation
                  }
                }
              }
            }
            JOINT RightHandRing1
            {
            OFFSET -9.250 0.670 -1.130
            CHANNELS 6 Xposition Yposition Zposition Zrotation Xrotation Yrotation
              JOINT RightHandRing2
              {
              OFFSET -2.470 0.000 0.000
              CHANNELS 6 Xposition Yposition Zposition Zrotation Xrotation Yrotation
                JOINT RightHandRing3
                {
                OFFSET -2.210 0.000 0.000
                CHANNELS 6 Xposition Yposition Zposition Zrotation Xrotation Yrotation
                  JOINT RightHandRing4
                  {
                  OFFSET -1.800 0.000 0.000
                  CHANNELS 6 Xposition Yposition Zposition Zrotation Xrotation Yrotation
                  }
                }
              }
            }
            JOINT RightHandPinky1
            {
            OFFSET -9.350 0.660 -2.720
            CHANNELS 6 Xposition Yposition Zposition Zrotation Xrotation Yrotation
              JOINT RightHandPinky2
              {
              OFFSET -1.630 0.000 0.000
              CHANNELS 6 Xposition Yposition Zposition Zrotation Xrotation Yrotation
                JOINT RightHandPinky3
                {
                OFFSET -1.710 0.000 0.000
                CHANNELS 6 Xposition Yposition Zposition Zrotation Xrotation Yrotation
                  JOINT RightHandPinky4
                  {
                  OFFSET -1.800 0.000 0.000
                  CHANNELS 6 Xposition Yposition Zposition Zrotation Xrotation Yrotation
                  }
                }
              }
            }
          }
        }
      }
    }
    JOINT Neck
    {
      OFFSET -0.000 36.302 0.000
      CHANNELS 6 Xposition Yposition Zposition Zrotation Xrotation Yrotation
      JOINT Head
      {
        OFFSET -0.000 12.378 -0.000
        CHANNELS 6 Xposition Yposition Zposition Zrotation Xrotation Yrotation
        End Site
        {
          OFFSET -0.000 0.050 -0.000
        }
      }
    }
  }
}
MOTION
Frames:	4
Frame Time:	0.0333333
-3.2494 43.1217 -232.4 -0.428513 18.4555 -0.793828 6.88906 -6.81644 3.23102 5.38955 -5.92873 -1.80473 0 -48.4407 7.15256e-05 -5.64624 -4.00849 -0.395973 -1.49012e-06 -38.3391 -7.15256e-05 6.69022 -12.1741 5.20371 -6.7865 -6.95823 2.68056 -4.19501 -7.23608 -2.8979 1.49012e-06 -48.0446 2.38419e-05 7.27099 -1.4869 0.18969 -2.98023e-06 -38.7599 0 -4.68537 -5.10583 -3.12711 7.45058e-07 4.74735 -4.74744 0.0565366 -17.0945 -0.337486 -2.98023e-06 36.3015 2.38419e-05 -35.8172 1.15259e-05 -6.90498 20.825 1.78814e-05 0 -31.2141 30.0639 -16.2158 22.4663 5.96046e-06 -3.57628e-05 3.55339e-06 3.4151e-06 -66.4084 27.6262 -2.98023e-05 8.9407e-06 -5.62976 0.151442 -23.5566 0.0062 0.0497 0.0339 -23.9622 0 0 0 0.0215 0 0 -23.9622 0 0 0.022 0 0 -23.9622 0 0 0.017 0 0 0 0 -0.0068 0.0873 0.0207 -23.9622 0 0 0 0.0267 0 -42.5994 0 0 0 0.0213 0 -47.9244 0 0 0 0.018 0 0 0 0 -0.0067 0.0922 0.0055 -23.9622 0 0 0 0.0266 0 -42.5994 0 0 0 0.0228 0 -47.9244 0 0 0 0.015 0 0 0 0 -0.0067 0.0925 -0.0113 -23.9622 0 0 0 0.0247 0 -42.5994 0 0 0 0.0221 0 -47.9244 0 0 0 0.018 0 0 0 0 -0.0066 0.0935 -0.0272 -23.9622 0 0 0 0.0163 0 -42.5994 0 0 0 0.0171 0 -47.9244 0 0 0 0.018 0 0 0 0 -2.98023e-06 36.3015 2.38419e-05 35.2144 -3.20165e-06 7.04727 -20.4065 1.78814e-05 0 29.1204 32.37 16.1012 -22.6923 5.96046e-06 2.38419e-05 -1.553e-05 0 56.6495 -22.6411 2.38419e-05 6.70552e-06 -3.33278 -0.697507 27.3796 -0.0062 0.0497 0.0339 23.9622 0 0 0 0.0215 0 0 -23.9622 0 0 0.022 0 0 -23.9622 0 0 0.017 0 0 0 0 0.0068 0.0873 0.0207 23.9622 0 0 0 0.0267 0 42.5995 0 0 0 0.0213 0 47.9244 0 0 0 0.018 0 0 0 0 0.0067 0.0922 0.0055 23.9622 0 0 0 0.0266 0 42.5995 0 0 0 0.0228 0 47.9244 0 0 0 0.015 0 0 0 0 0.0067 0.0925 -0.0113 23.9622 0 0 0 0.0247 0 42.5995 0 0 0 0.0221 0 47.9244 0 0 0 0.018 0 0 0 0 0.0066 0.0935 -0.0272 23.9622 0 0 0 0.0163 0 42.5995 0 0 0 0.0171 0 47.9244 0 0 0 0.018 0 0 0 0 -2.98023e-06 36.3015 2.38419e-05 -7.20699 50.254 5.55331 -1.11759e-06 14.9595 0 1.04587e-05 -1.36604e-05 -4.26887e-07 
-3.2494 43.1217 -232.4 -0.428513 18.4555 -0.793828 6.88906 -6.81644 3.23102 5.38955 -5.92873 -1.80473 0 -48.4407 7.15256e-05 -5.64624 -4.00849 -0.395973 -1.49012e-06 -38.3391 -7.15256e-05 6.69022 -12.1741 5.20371 -6.7865 -6.95823 2.68056 -4.19501 -7.23608 -2.8979 1.49012e-06 -48.0446 2.38419e-05 7.27099 -1.4869 0.18969 -2.98023e-06 -38.7599 0 -4.68537 -5.10583 -3.12711 7.45058e-07 4.74735 -4.74744 0.0565366 -17.0945 -0.337486 -2.98023e-06 36.3015 2.38419e-05 -35.8172 1.15259e-05 -6.90498 20.825 1.78814e-05 0 -31.2141 30.0639 -16.2158 22.4663 5.96046e-06 -3.57628e-05 3.55339e-06 3.4151e-06 -66.4084 27.6262 -2.98023e-05 8.9407e-06 -5.62976 0.151442 -23.5566 0.0062 0.0497 0.0339 -23.9622 0 0 0 0.0215 0 0 -23.9622 0 0 0.022 0 0 -23.9622 0 0 0.017 0 0 0 0 -0.0068 0.0873 0.0207 -23.9622 0 0 0 0.0267 0 -42.5994 0 0 0 0.0213 0 -47.9244 0 0 0 0.018 0 0 0 0 -0.0067 0.0922 0.0055 -23.9622 0 0 0 0.0266 0 -42.5994 0 0 0 0.0228 0 -47.9244 0 0 0 0.015 0 0 0 0 -0.0067 0.0925 -0.0113 -23.9622 0 0 0 0.0247 0 -42.5994 0 0 0 0.0221 0 -47.9244 0 0 0 0.018 0 0 0 0 -0.0066 0.0935 -0.0272 -23.9622 0 0 0 0.0163 0 -42.5994 0 0 0 0.0171 0 -47.9244 0 0 0 0.018 0 0 0 0 -2.98023e-06 36.3015 2.38419e-05 35.2144 -3.20165e-06 7.04727 -20.4065 1.78814e-05 0 29.1204 32.37 16.1012 -22.6923 5.96046e-06 2.38419e-05 -1.553e-05 0 56.6495 -22.6411 2.38419e-05 6.70552e-06 -3.33278 -0.697507 27.3796 -0.0062 0.0497 0.0339 23.9622 0 0 0 0.0215 0 0 -23.9622 0 0 0.022 0 0 -23.9622 0 0 0.017 0 0 0 0 0.0068 0.0873 0.0207 23.9622 0 0 0 0.0267 0 42.5995 0 0 0 0.0213 0 47.9244 0 0 0 0.018 0 0 0 0 0.0067 0.0922 0.0055 23.9622 0 0 0 0.0266 0 42.5995 0 0 0 0.0228 0 47.9244 0 0 0 0.015 0 0 0 0 0.0067 0.0925 -0.0113 23.9622 0 0 0 0.0247 0 42.5995 0 0 0 0.0221 0 47.9244 0 0 0 0.018 0 0 0 0 0.0066 0.0935 -0.0272 23.9622 0 0 0 0.0163 0 42.5995 0 0 0 0.0171 0 47.9244 0 0 0 0.018 0 0 0 0 -2.98023e-06 36.3015 2.38419e-05 -7.20699 50.254 5.55331 -1.11759e-06 14.9595 0 1.04587e-05 -1.36604e-05 -4.26887e-07 
-3.19273 43.2158 -232.724 -0.339642 17.7388 -0.859457 6.85173 -6.87666 3.16679 5.29935 -5.2873 -1.99668 1.49012e-06 -48.5247 0 -5.74402 -4.21289 -0.423381 -7.45058e-07 -38.3698 4.76837e-05 7.09718 -12.6724 5.57365 -6.74806 -6.98018 2.58565 -4.39201 -6.71668 -3.00346 -1.49012e-06 -48.0672 4.76837e-05 7.36909 -1.43463 0.185518 0 -38.7915 -7.15256e-05 -4.53645 -5.1308 -3.03003 -7.45058e-07 4.71754 -4.71752 0.0662528 -16.1415 -0.401683 -1.49012e-06 36.3015 2.38419e-05 -35.7959 9.39151e-06 -6.94215 20.8708 5.96046e-06 4.76837e-05 -30.4775 29.859 -18.4822 22.4942 0 -2.38419e-05 3.02751e-06 -1.53679e-05 -67.7107 28.415 5.96046e-06 -1.49012e-05 -5.01659 0.0687027 -19.1016 0.0062 0.0497 0.0339 -31.9947 0 0 0 0.0215 0 0 -31.9947 0 0 0.022 0 0 -31.9947 0 0 0.017 0 0 0 0 -0.0068 0.0873 0.0207 -31.9947 0 0 0 0.0267 0 -56.8795 0 0 0 0.0213 0 -63.9894 0 0 0 0.018 0 0 0 0 -0.0067 0.0922 0.0055 -31.9947 0 0 0 0.0266 0 -56.8795 0 0 0 0.0228 0 -63.9894 0 0 0 0.015 0 0 0 0 -0.0067 0.0925 -0.0113 -31.9947 0 0 0 0.0247 0 -56.8795 0 0 0 0.0221 0 -63.9894 0 0 0 0.018 0 0 0 0 -0.0066 0.0935 -0.0272 -31.9947 0 0 0 0.0163 0 -56.8795 0 0 0 0.0171 0 -63.9894 0 0 0 0.018 0 0 0 0 -1.49012e-06 36.3015 2.38419e-05 35.2153 -5.70961e-06 7.12461 -20.339 -5.96046e-06 -4.76837e-05 26.7588 33.7379 18.4168 -22.6499 5.96046e-06 -1.19209e-05 -6.4344e-06 0 57.9434 -22.6006 -1.19209e-05 -1.19209e-05 -8.17455 -0.948857 27.5001 -0.0062 0.0497 0.0339 31.9948 0 0 0 0.0215 0 0 -31.9948 0 0 0.022 0 0 -31.9948 0 0 0.017 0 0 0 0 0.0068 0.0873 0.0207 31.9948 0 0 0 0.0267 0 56.8796 0 0 0 0.0213 0 63.9895 0 0 0 0.018 0 0 0 0 0.0067 0.0922 0.0055 31.9948 0 0 0 0.0266 0 56.8796 0 0 0 0.0228 0 63.9895 0 0 0 0.015 0 0 0 0 0.0067 0.0925 -0.0113 31.9948 0 0 0 0.0247 0 56.8796 0 0 0 0.0221 0 63.9895 0 0 0 0.018 0 0 0 0 0.0066 0.0935 -0.0272 31.9948 0 0 0 0.0163 0 56.8796 0 0 0 0.0171 0 63.9895 0 0 0 0.018 0 0 0 0 -1.49012e-06 36.3015 2.38419e-05 -7.07017 46.7212 5.15957 -4.65661e-07 14.1599 -2.38419e-05 1.0352e-05 -1.19528e-05 -5.33609e-07 
-3.15689 43.3371 -232.924 -0.312696 17.2914 -0.94593 6.82797 -6.92092 3.13742 5.28118 -4.86235 -2.16333 7.45058e-07 -48.652 -2.38419e-05 -5.79562 -4.40519 -0.446674 -7.45058e-07 -38.3564 -2.38419e-05 7.37448 -13.0074 5.82867 -6.72565 -7.00511 2.52647 -4.47269 -6.41356 -3.11319 -1.49012e-06 -48.1324 0 7.42172 -1.3653 0.17783 2.98023e-06 -38.8172 0 -4.41802 -5.17497 -2.9551 7.45058e-07 4.69191 -4.69191 0.0955805 -15.5385 -0.427386 -2.98023e-06 36.3015 0 -35.8952 1.15259e-05 -6.90984 20.9219 1.19209e-05 2.38419e-05 -29.8404 29.9548 -19.8377 22.5171 -1.19209e-05 1.19209e-05 2.236e-05 1.70755e-06 -67.9002 28.8391 5.96046e-06 -5.96046e-06 -4.62984 0.0334389 -16.7055 0.0062 0.0497 0.0339 -38.0909 0 0 0 0.0215 0 0 -38.0909 0 0 0.022 0 0 -38.0909 0 0 0.017 0 0 0 0 -0.0068 0.0873 0.0207 -38.0909 0 0 0 0.0267 0 -67.7171 0 0 0 0.0213 0 -76.1817 0 0 0 0.018 0 0 0 0 -0.0067 0.0922 0.0055 -38.0909 0 0 0 0.0266 0 -67.7171 0 0 0 0.0228 0 -76.1817 0 0 0 0.015 0 0 0 0 -0.0067 0.0925 -0.0113 -38.0909 0 0 0 0.0247 0 -67.7171 0 0 0 0.0221 0 -76.1817 0 0 0 0.018 0 0 0 0 -0.0066 0.0935 -0.0272 -38.0909 0 0 0 0.0163 0 -67.7171 0 0 0 0.0171 0 -76.1817 0 0 0 0.018 0 0 0 0 -2.98023e-06 36.3015 0 35.285 -3.78862e-06 7.10915 -20.3382 1.19209e-05 4.76837e-05 25.3036 34.4497 19.8719 -22.6343 -2.98023e-05 -1.19209e-05 -1.52103e-05 1.53679e-05 58.4092 -22.6017 0 1.04308e-05 -10.6523 -1.00887 27.2781 -0.0062 0.0497 0.0339 38.0909 0 0 0 0.0215 0 0 -38.0909 0 0 0.022 0 0 -38.0909 0 0 0.017 0 0 0 0 0.0068 0.0873 0.0207 38.0909 0 0 0 0.0267 0 67.7171 0 0 0 0.0213 0 76.1818 0 0 0 0.018 0 0 0 0 0.0067 0.0922 0.0055 38.0909 0 0 0 0.0266 0 67.7171 0 0 0 0.0228 0 76.1818 0 0 0 0.015 0 0 0 0 0.0067 0.0925 -0.0113 38.0909 0 0 0 0.0247 0 67.7171 0 0 0 0.0221 0 76.1818 0 0 0 0.018 0 0 0 0 0.0066 0.0935 -0.0272 38.0909 0 0 0 0.0163 0 67.7171 0 0 0 0.0171 0 76.1818 0 0 0 0.018 0 0 0 0 -2.98023e-06 36.3015 0 -6.94702 44.8352 4.91023 7.45058e-07 13.7338 4.76837e-05 1.12058e-05 -8.53774e-06 2.13443e-07 
